<?xml version="1.0" standalone="no"?>
<!DOCTYPE svg PUBLIC "-//W3C//DTD SVG 20010904//EN"
 "http://www.w3.org/TR/2001/REC-SVG-20010904/DTD/svg10.dtd">
<svg version="1.0" xmlns="http://www.w3.org/2000/svg"
 width="2388.000000pt" height="1668.000000pt" viewBox="0 0 2388.000000 1668.000000"
 preserveAspectRatio="xMidYMid meet">
<metadata>
Created by potrace 1.16, written by Peter Selinger 2001-2019
</metadata>
<g transform="translate(0.000000,1668.000000) scale(0.100000,-0.100000)"
fill="#000000" stroke="none">
<path d="M18425 8238 c-22 -11 -51 -30 -65 -43 -14 -12 -83 -62 -155 -110
-432 -294 -910 -624 -1120 -774 -66 -48 -173 -120 -238 -161 -154 -98 -421
-285 -627 -441 -91 -68 -190 -140 -220 -160 -233 -153 -418 -273 -490 -316
-47 -29 -146 -96 -221 -150 -174 -125 -315 -211 -404 -246 -65 -25 -77 -27
-170 -21 -55 3 -152 14 -215 24 -63 11 -180 26 -260 35 -80 8 -203 22 -275 31
-134 15 -575 91 -725 124 -152 34 -333 62 -430 66 -92 5 -97 4 -165 -29 -38
-19 -95 -50 -125 -69 -30 -19 -149 -82 -265 -139 l-210 -104 -80 1 c-77 0 -84
2 -205 61 -121 59 -376 146 -505 173 -43 9 -113 11 -245 6 -246 -9 -280 -1
-620 149 -102 45 -216 92 -255 105 -38 12 -86 31 -105 40 -19 10 -105 44 -190
75 -85 32 -256 106 -380 165 -486 232 -499 237 -553 209 -12 -6 -35 -24 -52
-39 -45 -40 -208 -149 -315 -210 -120 -68 -355 -227 -820 -551 -687 -480 -633
-447 -714 -429 -70 16 -144 44 -218 81 -61 31 -65 31 -143 23 -44 -4 -154 -7
-245 -6 -235 4 -325 26 -524 128 -86 44 -174 97 -204 123 -101 88 -131 103
-187 96 -72 -9 -196 -42 -295 -76 -47 -17 -150 -48 -230 -69 -80 -22 -179 -51
-220 -65 -41 -14 -104 -28 -140 -31 -56 -6 -72 -3 -110 16 -113 58 -502 382
-995 830 -81 74 -185 164 -229 200 -84 68 -135 117 -402 391 -190 194 -307
289 -357 289 -68 0 -276 -115 -637 -350 -107 -70 -244 -157 -305 -195 -60 -37
-137 -85 -170 -106 -33 -20 -89 -49 -125 -64 -175 -72 -367 -190 -578 -353
-131 -101 -245 -182 -259 -182 -4 0 -51 -27 -103 -60 -52 -32 -148 -90 -212
-127 l-117 -68 -1 -2967 0 -2968 11940 0 11940 0 0 2712 0 2711 -97 -6 c-54
-4 -163 -9 -243 -13 l-145 -6 -100 37 c-55 20 -152 60 -215 90 -63 29 -155 65
-205 80 -204 61 -416 137 -469 169 -94 56 -213 57 -428 2 -107 -28 -283 -56
-347 -56 -35 0 -55 9 -119 56 -42 31 -111 89 -152 128 -41 39 -106 98 -145
131 -38 33 -124 112 -190 175 -66 64 -163 151 -215 194 -169 140 -523 496
-660 664 -63 78 -108 121 -179 173 -53 39 -128 93 -167 122 -40 29 -159 110
-265 182 -107 71 -248 171 -314 221 -66 50 -185 137 -265 194 -80 57 -189 137
-244 178 -170 129 -210 142 -291 100z"/>
</g>
</svg>
