<?xml version="1.0" encoding="UTF-8"?>
<svg xmlns="http://www.w3.org/2000/svg" xmlns:xlink="http://www.w3.org/1999/xlink" width="1122pt" height="1122pt" viewBox="0 0 1122 1122" version="1.1">
<g id="surface1">
<rect x="0" y="0" width="1122" height="1122" style="fill:rgb(89.84375%,96.09375%,97.65625%);fill-opacity:1;stroke:none;"/>
<path style=" stroke:none;fill-rule:nonzero;fill:rgb(93.75%,97.65625%,98.4375%);fill-opacity:1;" d="M 561 1015.550781 C 309.960938 1015.550781 106.453125 812.039063 106.453125 561 C 106.453125 309.960938 309.960938 106.449219 561 106.449219 C 812.039063 106.449219 1015.550781 309.960938 1015.550781 561 C 1015.550781 812.039063 812.039063 1015.550781 561 1015.550781 "/>
<path style=" stroke:none;fill-rule:nonzero;fill:rgb(95.701599%,82.421875%,25.87738%);fill-opacity:1;" d="M 760.390625 507.269531 C 760.390625 397.976563 671.789063 309.375 562.492188 309.375 C 453.195313 309.375 364.222656 398.671875 364.597656 507.96875 C 364.785156 562.238281 386.824219 611.359375 422.371094 647 C 450.042969 674.746094 470.285156 709.007813 480.515625 746.835938 L 496.472656 805.851563 L 626.195313 805.851563 L 641.3125 749.957031 C 651.761719 711.3125 672.6875 676.445313 701.234375 648.378906 C 737.746094 612.480469 760.390625 562.519531 760.390625 507.269531 "/>
<path style=" stroke:none;fill-rule:nonzero;fill:rgb(34.910583%,34.910583%,35.693359%);fill-opacity:1;" d="M 592.457031 874.972656 L 529.210938 874.972656 C 511.289063 874.972656 495.957031 861.738281 494.9375 844.945313 L 489.597656 780.136719 L 632.84375 779.21875 L 626.730469 844.945313 C 625.710938 861.738281 610.378906 874.972656 592.457031 874.972656 "/>
<path style=" stroke:none;fill-rule:nonzero;fill:rgb(50.193787%,50.584412%,51.367188%);fill-opacity:1;" d="M 619.964844 807.480469 C 579.949219 809.191406 539.792969 807.144531 499.78125 808.910156 C 496.230469 809.066406 496.496094 814.253906 499.980469 814.371094 C 540.023438 815.699219 580.175781 813.21875 620.222656 814.492188 C 624.714844 814.636719 624.515625 807.289063 619.964844 807.480469 "/>
<path style=" stroke:none;fill-rule:nonzero;fill:rgb(50.193787%,50.584412%,51.367188%);fill-opacity:1;" d="M 619.964844 824.863281 C 579.949219 826.574219 539.792969 824.523438 499.78125 826.292969 C 496.230469 826.449219 496.496094 831.636719 499.980469 831.753906 C 540.023438 833.082031 580.175781 830.601563 620.222656 831.875 C 624.714844 832.015625 624.515625 824.667969 619.964844 824.863281 "/>
<path style=" stroke:none;fill-rule:nonzero;fill:rgb(95.701599%,82.421875%,25.87738%);fill-opacity:1;" d="M 578.628906 208.746094 C 578.628906 221.496094 571.847656 267.34375 563.484375 267.34375 C 555.117188 267.34375 548.339844 221.496094 548.339844 208.746094 C 548.339844 195.992188 555.117188 185.652344 563.484375 185.652344 C 571.847656 185.652344 578.628906 195.992188 578.628906 208.746094 "/>
<path style=" stroke:none;fill-rule:nonzero;fill:rgb(95.701599%,82.421875%,25.87738%);fill-opacity:1;" d="M 767.34375 279.160156 C 757.667969 287.46875 727.3125 322.492188 732.765625 328.835938 C 738.21875 335.179688 777.410156 310.445313 787.082031 302.132813 C 796.753906 293.820313 800.175781 281.941406 794.726563 275.597656 C 789.273438 269.253906 777.015625 270.847656 767.34375 279.160156 "/>
<path style=" stroke:none;fill-rule:nonzero;fill:rgb(95.701599%,82.421875%,25.87738%);fill-opacity:1;" d="M 840.890625 483.753906 C 828.242188 485.359375 781.90625 484.410156 780.851563 476.109375 C 779.796875 467.8125 824.425781 455.308594 837.074219 453.703125 C 849.726563 452.097656 860.835938 457.519531 861.890625 465.816406 C 862.945313 474.117188 853.542969 482.144531 840.890625 483.753906 "/>
<path style=" stroke:none;fill-rule:nonzero;fill:rgb(95.701599%,82.421875%,25.87738%);fill-opacity:1;" d="M 376.945313 263.933594 C 386.984375 271.792969 418.898438 305.398438 413.742188 311.984375 C 408.585938 318.570313 368.308594 295.644531 358.269531 287.777344 C 348.230469 279.917969 344.269531 268.203125 349.425781 261.617188 C 354.585938 255.03125 366.902344 256.066406 376.945313 263.933594 "/>
<path style=" stroke:none;fill-rule:nonzero;fill:rgb(95.701599%,82.421875%,25.87738%);fill-opacity:1;" d="M 281.109375 450.976563 C 293.757813 452.582031 340.09375 451.632813 341.148438 443.335938 C 342.203125 435.039063 297.574219 422.535156 284.925781 420.929688 C 272.273438 419.320313 261.164063 424.742188 260.109375 433.042969 C 259.054688 441.339844 268.457031 449.367188 281.109375 450.976563 "/>
<path style=" stroke:none;fill-rule:nonzero;fill:rgb(100%,100%,100%);fill-opacity:1;" d="M 625.976563 555.316406 C 626.347656 550.394531 627.648438 545.546875 629.285156 540.90625 C 630.03125 538.804688 630.980469 536.828125 632.167969 534.941406 C 632.261719 534.796875 632.679688 534.257813 633.101563 533.789063 C 633.15625 534.113281 633.296875 534.566406 633.328125 535.222656 C 633.964844 547.230469 632.972656 560.1875 629.230469 571.636719 C 628.769531 573.058594 628.210938 574.433594 627.582031 575.769531 C 626.007813 569.050781 625.460938 562.085938 625.976563 555.316406 Z M 579.742188 525.496094 C 580.160156 530.234375 579.0625 536.089844 578.800781 538.964844 C 578.316406 544.210938 577.398438 549.414063 576.1875 554.550781 C 574.953125 544.445313 575.777344 534.082031 579.742188 525.496094 Z M 647.90625 608.03125 C 641.546875 603.378906 636.601563 597.285156 633 590.4375 C 640.179688 581.578125 643.339844 569.660156 644.652344 558.585938 C 645.457031 551.816406 645.6875 545.023438 645.792969 538.214844 C 645.898438 531.648438 645.035156 526.070313 639.476563 521.980469 C 634.515625 518.339844 627.894531 521.628906 624.089844 525.164063 C 619.699219 529.242188 617.574219 535.925781 615.878906 541.488281 C 612.457031 552.726563 612.519531 564.773438 614.667969 576.230469 C 615.417969 580.226563 616.535156 584.144531 617.976563 587.945313 C 615.167969 590.144531 611.984375 591.882813 608.46875 593.007813 C 597.65625 596.46875 589.449219 590.238281 584.445313 581.019531 C 583.621094 579.507813 582.84375 577.902344 582.105469 576.230469 C 582.957031 573.953125 583.769531 571.675781 584.527344 569.421875 C 588.207031 558.46875 590.238281 546.996094 591.15625 535.496094 C 591.917969 525.96875 592.191406 514.578125 583.019531 508.933594 C 580.074219 507.117188 576.761719 508.488281 574.910156 511.0625 C 561.515625 529.648438 562.265625 554.296875 569.542969 575.386719 C 567.199219 580.988281 564.449219 586.421875 561.394531 591.679688 C 558.035156 597.464844 551.625 606.386719 543.84375 605.257813 C 536.601563 604.199219 530.8125 595.109375 527.210938 589.488281 C 524.570313 585.367188 522.5 580.964844 520.867188 576.390625 C 521.789063 573.972656 522.644531 571.519531 523.429688 569.042969 C 526.519531 559.308594 528.246094 549.160156 529.054688 538.992188 C 529.730469 530.503906 530.003906 518.578125 520.71875 514.511719 C 518.015625 513.328125 514.027344 513.453125 512.597656 516.644531 C 504.449219 534.78125 502.886719 554.683594 508.023438 573.902344 C 508.199219 574.558594 508.402344 575.199219 508.597656 575.851563 C 502.964844 590.183594 494.402344 603.453125 484.011719 614.734375 C 479.34375 619.800781 486.730469 627.273438 491.589844 622.316406 C 500.859375 612.851563 508.566406 602.105469 514.589844 590.4375 C 516.378906 593.796875 518.386719 597.03125 520.597656 600.089844 C 526.660156 608.488281 534.261719 616.347656 545.171875 616.9375 C 555.359375 617.488281 563.636719 608.921875 569.15625 601.476563 C 571.804688 597.902344 574.121094 594.007813 576.183594 589.953125 C 581.171875 597.902344 588.371094 604.210938 598.175781 605.582031 C 607.195313 606.847656 615.9375 604.042969 623.328125 599.09375 C 627.664063 606.464844 633.257813 613.101563 639.78125 618.5625 C 647.230469 624.796875 655.734375 613.757813 647.90625 608.03125 "/>
<path style=" stroke:none;fill-rule:nonzero;fill:rgb(100%,100%,100%);fill-opacity:1;" d="M 659.160156 578.921875 C 638.117188 643.148438 615.96875 707.050781 592.171875 770.308594 C 589.320313 777.882813 600.988281 782.523438 603.820313 774.953125 C 627.535156 711.601563 649.558594 647.671875 669.3125 582.96875 C 671.347656 576.296875 661.363281 572.195313 659.160156 578.921875 "/>
<path style=" stroke:none;fill-rule:nonzero;fill:rgb(100%,100%,100%);fill-opacity:1;" d="M 467.773438 574.863281 C 484.5625 640.328125 500.253906 706.117188 514.203125 772.246094 C 515.875 780.164063 528.207031 777.804688 526.523438 769.898438 C 512.453125 703.730469 496.644531 637.988281 478.507813 572.816406 C 476.636719 566.09375 466.015625 568.007813 467.773438 574.863281 "/>
<path style=" stroke:none;fill-rule:nonzero;fill:rgb(18.041992%,27.43988%,38.035583%);fill-opacity:1;" d="M 442.703125 1035.558594 L 442.703125 964.058594 L 447.503906 964.058594 L 447.503906 1035.558594 L 442.703125 1035.558594 "/>
<path style=" stroke:none;fill-rule:nonzero;fill:rgb(18.041992%,27.43988%,38.035583%);fill-opacity:1;" d="M 442.703125 1035.558594 L 444.703125 1035.558594 L 444.703125 966.058594 L 445.5 966.058594 L 445.5 1033.558594 L 442.703125 1033.558594 L 442.703125 1035.558594 L 444.703125 1035.558594 L 442.703125 1035.558594 L 442.703125 1037.558594 L 449.5 1037.558594 L 449.5 962.058594 L 440.703125 962.058594 L 440.703125 1037.558594 L 442.703125 1037.558594 L 442.703125 1035.558594 "/>
<path style=" stroke:none;fill-rule:nonzero;fill:rgb(18.041992%,27.43988%,38.035583%);fill-opacity:1;" d="M 493.503906 1032.160156 C 502.035156 1032.160156 508.886719 1029.859375 514.050781 1025.261719 C 519.21875 1020.660156 521.800781 1013.71875 521.800781 1004.460938 C 521.800781 995.191406 518.886719 987.824219 513.050781 982.355469 C 507.21875 976.894531 500.035156 974.15625 491.503906 974.15625 C 485.433594 974.15625 480.769531 974.292969 477.503906 974.558594 L 477.503906 1031.460938 C 481.503906 1031.917969 486.835938 1032.160156 493.503906 1032.160156 Z M 491.503906 970.058594 C 501.503906 970.058594 509.851563 973.144531 516.550781 979.308594 C 523.253906 985.476563 526.601563 993.855469 526.601563 1004.460938 C 526.601563 1015.058594 523.519531 1023.03125 517.351563 1028.359375 C 511.183594 1033.691406 503.234375 1036.359375 493.503906 1036.359375 C 486.769531 1036.359375 479.835938 1036.019531 472.699219 1035.359375 L 472.699219 970.65625 C 478.035156 970.257813 484.300781 970.058594 491.503906 970.058594 "/>
<path style=" stroke:none;fill-rule:nonzero;fill:rgb(18.041992%,27.43988%,38.035583%);fill-opacity:1;" d="M 493.503906 1032.160156 L 493.503906 1034.160156 C 497.945313 1034.160156 502.011719 1033.558594 505.675781 1032.332031 C 509.339844 1031.101563 512.59375 1029.230469 515.382813 1026.75 C 518.214844 1024.230469 520.347656 1021.050781 521.738281 1017.308594 C 523.132813 1013.558594 523.800781 1009.269531 523.800781 1004.460938 C 523.800781 999.617188 523.039063 995.199219 521.472656 991.246094 C 519.910156 987.296875 517.542969 983.824219 514.417969 980.898438 C 511.324219 978 507.839844 975.796875 504 974.339844 C 500.160156 972.878906 495.980469 972.15625 491.503906 972.15625 C 485.402344 972.15625 480.699219 972.289063 477.339844 972.5625 L 475.503906 972.714844 L 475.503906 1033.238281 L 477.269531 1033.441406 C 481.394531 1033.917969 486.785156 1034.160156 493.503906 1034.160156 L 493.503906 1030.160156 C 486.882813 1030.160156 481.609375 1029.917969 477.734375 1029.46875 L 477.503906 1031.460938 L 479.5 1031.460938 L 479.5 974.558594 L 477.503906 974.558594 L 477.664063 976.550781 C 480.832031 976.292969 485.464844 976.15625 491.503906 976.15625 C 495.554688 976.160156 499.230469 976.804688 502.578125 978.078125 C 505.921875 979.351563 508.941406 981.25 511.683594 983.816406 C 514.394531 986.359375 516.398438 989.304688 517.753906 992.71875 C 519.105469 996.132813 519.800781 1000.03125 519.800781 1004.460938 C 519.800781 1008.910156 519.179688 1012.71875 517.988281 1015.910156 C 516.796875 1019.101563 515.050781 1021.691406 512.722656 1023.761719 C 510.34375 1025.878906 507.589844 1027.460938 504.402344 1028.539063 C 501.214844 1029.609375 497.589844 1030.160156 493.503906 1030.160156 Z M 491.503906 970.058594 L 491.503906 972.058594 C 496.296875 972.058594 500.640625 972.796875 504.570313 974.246094 C 508.503906 975.699219 512.027344 977.863281 515.195313 980.777344 C 518.335938 983.671875 520.664063 987.039063 522.230469 990.960938 C 523.796875 994.882813 524.601563 999.367188 524.601563 1004.460938 C 524.601563 1009.558594 523.855469 1013.960938 522.421875 1017.660156 C 520.984375 1021.371094 518.875 1024.390625 516.042969 1026.839844 C 513.15625 1029.339844 509.867188 1031.210938 506.128906 1032.460938 C 502.386719 1033.71875 498.1875 1034.359375 493.503906 1034.359375 C 486.832031 1034.359375 479.960938 1034.03125 472.886719 1033.371094 L 472.699219 1035.359375 L 474.699219 1035.359375 L 474.699219 970.65625 L 472.699219 970.65625 L 472.851563 972.652344 C 478.117188 972.257813 484.339844 972.058594 491.503906 972.058594 L 491.503906 968.058594 C 484.265625 968.058594 477.953125 968.257813 472.550781 968.664063 L 470.699219 968.800781 L 470.699219 1037.179688 L 472.515625 1037.351563 C 479.707031 1038.019531 486.699219 1038.359375 493.503906 1038.359375 C 498.550781 1038.359375 503.191406 1037.667969 507.398438 1036.25 C 511.609375 1034.839844 515.378906 1032.710938 518.660156 1029.871094 C 521.992188 1026.988281 524.507813 1023.371094 526.152344 1019.101563 C 527.804688 1014.839844 528.601563 1009.949219 528.601563 1004.460938 C 528.601563 998.949219 527.730469 993.941406 525.945313 989.476563 C 524.164063 985.015625 521.46875 981.109375 517.90625 977.835938 C 514.375 974.585938 510.375 972.125 505.957031 970.492188 C 501.539063 968.863281 496.707031 968.058594 491.503906 968.058594 L 491.503906 970.058594 "/>
<path style=" stroke:none;fill-rule:nonzero;fill:rgb(18.041992%,27.43988%,38.035583%);fill-opacity:1;" d="M 546.601563 1035.558594 L 546.601563 970.65625 L 576.902344 970.65625 L 576.902344 974.65625 L 551.199219 974.65625 L 551.199219 998.257813 L 574.402344 998.257813 L 574.402344 1002.160156 L 551.199219 1002.160156 L 551.199219 1031.359375 L 577.902344 1031.359375 L 577.902344 1035.558594 L 546.601563 1035.558594 "/>
<path style=" stroke:none;fill-rule:nonzero;fill:rgb(18.041992%,27.43988%,38.035583%);fill-opacity:1;" d="M 546.601563 1035.558594 L 548.601563 1035.558594 L 548.601563 972.65625 L 574.902344 972.65625 L 549.199219 972.65625 L 549.199219 1000.261719 L 572.402344 1000.261719 L 572.402344 1002.160156 L 574.402344 1002.160156 L 574.402344 1000.160156 L 549.199219 1000.160156 L 549.199219 1033.359375 L 575.902344 1033.359375 L 575.902344 1033.558594 L 546.601563 1033.558594 L 546.601563 1035.558594 L 548.601563 1035.558594 L 546.601563 1035.558594 L 546.601563 1037.558594 L 579.902344 1037.558594 L 579.902344 1029.359375 L 553.199219 1029.359375 L 553.199219 1004.160156 L 576.402344 1004.160156 L 576.402344 996.257813 L 553.199219 996.257813 L 553.199219 976.65625 L 578.902344 976.65625 L 578.902344 968.65625 L 544.601563 968.65625 L 544.601563 1037.558594 L 546.601563 1037.558594 L 546.601563 1035.558594 "/>
<path style=" stroke:none;fill-rule:nonzero;fill:rgb(18.041992%,27.43988%,38.035583%);fill-opacity:1;" d="M 613.800781 977.65625 C 612.800781 980.65625 611.898438 983.15625 611.101563 985.15625 L 601.101563 1009.160156 L 626.699219 1009.160156 L 616.800781 985.257813 C 615.265625 981.523438 614.265625 978.992188 613.800781 977.65625 Z M 599.5 1013.058594 L 590.199219 1035.558594 L 585.5 1035.558594 L 612.699219 970.257813 L 615.398438 970.257813 L 642.800781 1035.558594 L 637.699219 1035.558594 L 628.300781 1013.058594 L 599.5 1013.058594 "/>
<path style=" stroke:none;fill-rule:nonzero;fill:rgb(18.041992%,27.43988%,38.035583%);fill-opacity:1;" d="M 613.800781 977.65625 L 611.902344 977.023438 C 610.910156 980 610.023438 982.46875 609.242188 984.414063 L 611.101563 985.15625 L 609.253906 984.390625 L 598.101563 1011.160156 L 629.695313 1011.160156 L 618.648438 984.492188 L 618.648438 984.496094 C 617.121094 980.78125 616.125 978.246094 615.6875 977 L 613.757813 971.46875 L 611.902344 977.023438 L 613.800781 977.65625 L 611.910156 978.316406 C 612.410156 979.734375 613.410156 982.269531 614.949219 986.019531 L 614.953125 986.023438 L 623.707031 1007.160156 L 604.101563 1007.160156 L 612.945313 985.925781 L 612.957031 985.898438 C 613.777344 983.847656 614.6875 981.316406 615.699219 978.289063 L 613.800781 977.65625 L 611.910156 978.316406 Z M 599.5 1013.058594 L 597.652344 1012.289063 L 588.863281 1033.558594 L 588.5 1033.558594 L 614.035156 972.257813 L 614.070313 972.257813 L 639.792969 1033.558594 L 639.03125 1033.558594 L 629.632813 1011.058594 L 598.164063 1011.058594 L 597.652344 1012.289063 L 599.5 1013.058594 L 599.5 1015.058594 L 626.96875 1015.058594 L 636.367188 1037.558594 L 645.808594 1037.558594 L 616.730469 968.257813 L 611.367188 968.257813 L 582.5 1037.558594 L 591.539063 1037.558594 L 601.347656 1013.820313 L 599.5 1013.058594 L 599.5 1015.058594 L 599.5 1013.058594 "/>
<path style=" stroke:none;fill-rule:nonzero;fill:rgb(18.041992%,27.43988%,38.035583%);fill-opacity:1;" d="M 669.101563 973.457031 C 665.5 973.457031 662.5625 974.324219 660.300781 976.058594 C 658.03125 977.792969 656.898438 980.226563 656.898438 983.355469 C 656.898438 986.957031 658.398438 990.191406 661.398438 993.058594 C 663.53125 995.125 666.28125 997.308594 669.648438 999.605469 C 673.015625 1001.910156 675.332031 1003.558594 676.601563 1004.558594 C 677.863281 1005.558594 679.398438 1006.921875 681.199219 1008.660156 C 684.464844 1011.921875 686.101563 1015.691406 686.101563 1019.960938 C 686.101563 1025.488281 684.25 1029.667969 680.550781 1032.511719 C 676.851563 1035.339844 671.683594 1036.761719 665.050781 1036.761719 C 658.414063 1036.761719 652.863281 1035.03125 648.398438 1031.558594 L 650.800781 1028.058594 C 655.332031 1031.128906 660.132813 1032.660156 665.199219 1032.660156 C 670.265625 1032.660156 674.214844 1031.589844 677.050781 1029.460938 C 679.882813 1027.320313 681.300781 1024.320313 681.300781 1020.460938 C 681.300781 1017.128906 679.863281 1014.058594 677 1011.261719 C 675 1009.261719 672.3125 1007.089844 668.949219 1004.761719 C 665.582031 1002.421875 663.230469 1000.738281 661.898438 999.707031 C 660.5625 998.675781 659 997.292969 657.199219 995.558594 C 653.800781 992.15625 652.101563 988.226563 652.101563 983.757813 C 652.101563 979.292969 653.683594 975.792969 656.851563 973.257813 C 660.015625 970.726563 664.398438 969.457031 670 969.457031 C 675.601563 969.457031 680.632813 970.558594 685.101563 972.757813 L 683.398438 976.457031 C 679.265625 974.457031 674.5 973.457031 669.101563 973.457031 "/>
<path style=" stroke:none;fill-rule:nonzero;fill:rgb(18.041992%,27.43988%,38.035583%);fill-opacity:1;" d="M 669.101563 973.457031 L 669.101563 971.457031 C 667.140625 971.457031 665.3125 971.691406 663.632813 972.1875 C 661.953125 972.683594 660.417969 973.445313 659.082031 974.46875 C 657.71875 975.511719 656.640625 976.820313 655.9375 978.339844 C 655.230469 979.855469 654.898438 981.550781 654.898438 983.355469 C 654.898438 985.433594 655.339844 987.449219 656.210938 989.324219 C 657.078125 991.199219 658.367188 992.925781 660.019531 994.503906 L 660.007813 994.492188 C 662.253906 996.667969 665.085938 998.910156 668.519531 1001.261719 C 671.867188 1003.550781 674.175781 1005.191406 675.359375 1006.128906 C 676.546875 1007.058594 678.042969 1008.398438 679.8125 1010.101563 L 681.199219 1008.660156 L 679.785156 1010.070313 C 681.265625 1011.550781 682.332031 1013.101563 683.039063 1014.730469 C 683.746094 1016.359375 684.097656 1018.078125 684.101563 1019.960938 C 684.097656 1022.5 683.675781 1024.648438 682.882813 1026.441406 C 682.085938 1028.230469 680.933594 1029.691406 679.332031 1030.917969 C 677.714844 1032.160156 675.742188 1033.109375 673.371094 1033.769531 C 670.996094 1034.417969 668.222656 1034.761719 665.050781 1034.761719 C 658.753906 1034.75 653.707031 1033.140625 649.625 1029.980469 L 648.398438 1031.558594 L 650.050781 1032.691406 L 652.449219 1029.191406 L 650.800781 1028.058594 L 649.679688 1029.710938 C 654.492188 1032.980469 659.726563 1034.660156 665.199219 1034.660156 C 667.871094 1034.660156 670.300781 1034.378906 672.480469 1033.789063 C 674.664063 1033.199219 676.605469 1032.300781 678.253906 1031.050781 C 679.902344 1029.820313 681.195313 1028.261719 682.046875 1026.460938 C 682.898438 1024.660156 683.300781 1022.628906 683.296875 1020.460938 C 683.300781 1018.5 682.871094 1016.589844 682.035156 1014.808594 C 681.199219 1013.019531 679.972656 1011.359375 678.398438 1009.828125 L 677 1011.261719 L 678.414063 1009.839844 C 676.292969 1007.71875 673.519531 1005.5 670.089844 1003.109375 C 666.734375 1000.789063 664.394531 999.113281 663.125 998.128906 L 663.121094 998.125 C 661.871094 997.15625 660.351563 995.816406 658.585938 994.117188 L 657.199219 995.558594 L 658.613281 994.144531 C 657.066406 992.597656 655.949219 990.976563 655.210938 989.265625 C 654.472656 987.550781 654.101563 985.738281 654.097656 983.757813 C 654.101563 981.757813 654.449219 980.0625 655.109375 978.605469 C 655.769531 977.152344 656.738281 975.910156 658.097656 974.820313 C 659.457031 973.734375 661.09375 972.898438 663.066406 972.328125 C 665.039063 971.757813 667.351563 971.457031 670 971.457031 C 675.339844 971.457031 680.046875 972.5 684.214844 974.550781 L 685.101563 972.757813 L 683.28125 971.921875 L 681.582031 975.621094 L 683.398438 976.457031 L 684.269531 974.65625 C 679.828125 972.507813 674.742188 971.457031 669.101563 971.457031 L 669.101563 975.457031 C 674.253906 975.457031 678.703125 976.40625 682.527344 978.257813 L 684.363281 979.144531 L 687.730469 971.824219 L 685.984375 970.964844 C 681.21875 968.613281 675.859375 967.453125 670 967.457031 C 667.050781 967.457031 664.367188 967.789063 661.957031 968.484375 C 659.546875 969.179688 657.40625 970.246094 655.601563 971.695313 C 653.792969 973.140625 652.386719 974.914063 651.464844 976.960938 C 650.539063 979.003906 650.097656 981.289063 650.101563 983.757813 C 650.097656 986.242188 650.578125 988.632813 651.539063 990.851563 C 652.496094 993.070313 653.929688 995.117188 655.785156 996.972656 L 655.8125 996.996094 C 657.648438 998.765625 659.257813 1000.191406 660.675781 1001.289063 L 660.671875 1001.289063 C 662.070313 1002.371094 664.429688 1004.058594 667.808594 1006.398438 C 671.105469 1008.691406 673.707031 1010.789063 675.585938 1012.671875 L 675.601563 1012.691406 C 676.894531 1013.949219 677.8125 1015.21875 678.410156 1016.5 C 679.007813 1017.789063 679.296875 1019.078125 679.300781 1020.460938 C 679.296875 1022.148438 678.992188 1023.558594 678.429688 1024.75 C 677.859375 1025.949219 677.03125 1026.960938 675.847656 1027.859375 C 674.65625 1028.75 673.207031 1029.449219 671.4375 1029.929688 C 669.671875 1030.398438 667.59375 1030.660156 665.199219 1030.660156 C 660.539063 1030.648438 656.171875 1029.269531 651.917969 1026.398438 L 650.273438 1025.289063 L 645.683594 1031.980469 L 647.171875 1033.140625 C 652.019531 1036.910156 658.074219 1038.769531 665.050781 1038.761719 C 668.507813 1038.761719 671.632813 1038.390625 674.425781 1037.621094 C 677.21875 1036.859375 679.683594 1035.691406 681.765625 1034.101563 C 683.867188 1032.488281 685.488281 1030.449219 686.539063 1028.050781 C 687.597656 1025.660156 688.101563 1022.941406 688.097656 1019.960938 C 688.101563 1017.570313 687.636719 1015.269531 686.707031 1013.140625 C 685.78125 1011 684.398438 1009.03125 682.613281 1007.238281 L 682.578125 1007.210938 L 682.585938 1007.21875 C 680.753906 1005.449219 679.183594 1004.050781 677.839844 1002.988281 C 676.488281 1001.921875 674.164063 1000.269531 670.777344 997.957031 C 667.476563 995.703125 664.8125 993.582031 662.789063 991.621094 L 662.78125 991.609375 C 661.429688 990.320313 660.46875 989 659.839844 987.640625 C 659.210938 986.28125 658.902344 984.878906 658.898438 983.355469 C 658.898438 982.027344 659.136719 980.945313 659.5625 980.027344 C 659.992188 979.109375 660.613281 978.339844 661.515625 977.644531 C 662.441406 976.9375 663.511719 976.394531 664.765625 976.023438 C 666.019531 975.65625 667.460938 975.457031 669.101563 975.457031 L 669.101563 973.457031 "/>
</g>
</svg>
